<?xml version="1.0" encoding="utf-8"?>
<svg xmlns="http://www.w3.org/2000/svg" viewBox="0 0 500 500">
    <g transform="matrix(1.785701, 0, 0, 1.785701, 35.351547, -0.423198)" id="object-0">
        <path d="M 120.204 0.237 L 240.204 70.239 L 240.204 210.239 L 120.204 280.239 L 0.204 210.239 L 0.204 70.239 L 120.204 0.237 Z" fill="#4a4a4a" style="stroke-width: 1;"/>
        <g id="arcs" transform="matrix(1, 0, 0, 1, -79.795395, -54.761292)">
            <path fill="#ff0000" d="M 200,100 A 100,100 0 0,1 286.60,150 L 260.62,167.50 A 70,70 0 0,0 200,130 Z"/>
            <path fill="#ffdd00" d="M 286.60,150 A 100,100 0 0,1 286.60,250 L 260.62,232.50 A 70,70 0 0,0 260.62,167.50 Z"/>
            <path fill="#00dd00" d="M 286.60,250 A 100,100 0 0,1 200,300 L 200,270 A 70,70 0 0,0 260.62,232.50 Z"/>
            <path fill="#00dddd" d="M 200,300 A 100,100 0 0,1 113.40,250 L 139.38,232.50 A 70,70 0 0,0 200,270 Z"/>
            <path fill="#0088ff" d="M 113.40,250 A 100,100 0 0,1 113.40,150 L 139.38,167.50 A 70,70 0 0,0 139.38,232.50 Z"/>
            <path fill="#dd00dd" d="M 113.40,150 A 100,100 0 0,1 200,100 L 200,130 A 70,70 0 0,0 139.38,167.50 Z"/>
        </g>
        <g transform="matrix(0.04, 0, 0, -0.04, 78.204605, 148.238708)">
            <path d="M1237 954 c305 -41 565 -232 703 -514 77 -158 95 -238 94 -435 -1 -137 -4 -179 -22 -245 -29 -106 -101 -254 -165 -337 l-51 -68 -115 112 c-64 61 -122 117 -129 123 -11 10 -4 26 37 86 160 236 135 541 -59 736 -112 112 -227 164 -384 171 -118 5 -185 -7 -281 -53 -205 -99 -329 -295 -328 -520 0 -136 39 -248 123 -361 l38 -51 -127 -127 -128 -128 -37 44 c-94 108 -173 286 -202 452 -21 117 -14 308 15 417 123 471 549 762 1018 698z m53 -1274 l0 -595 -180 0 -180 0 0 595 0 595 180 0 180 0 0 -595z" fill="white"/>
        </g>
    </g>
</svg>